<svg xmlns="http://www.w3.org/2000/svg" version="1.1" xmlns:xlink="http://www.w3.org/1999/xlink" xmlns:svgjs="http://svgjs.dev/svgjs" width="1500" height="1500" viewBox="0 0 1500 1500"><rect width="1500" height="1500" fill="#000000"></rect><g transform="matrix(0.6666666666666666,0,0,0.6666666666666666,249.39393939393938,438.5856950067477)"><svg viewBox="0 0 396 247" data-background-color="#000000" preserveAspectRatio="xMidYMid meet" height="935" width="1500" xmlns="http://www.w3.org/2000/svg" xmlns:xlink="http://www.w3.org/1999/xlink"><g id="tight-bounds" transform="matrix(1,0,0,1,0.2400000000000091,-0.09999999999999432)"><svg viewBox="0 0 395.52 247.2" height="247.2" width="395.52"><rect width="395.52" height="247.2" fill="url(#12b0af54-ebf0-42bc-b6b6-6afe47d33811)" mask="url(#d261774b-ef51-441e-aff5-64b1bc4313d2)" data-fill-palette-color="tertiary"></rect><g><svg></svg></g><g><svg viewBox="0 0 395.52 247.2" height="247.2" width="395.52"><g transform="matrix(1,0,0,1,75.54432,73.26474011173184)"><svg viewBox="0 0 244.43135999999998 100.67051977653631" height="100.67051977653631" width="244.43135999999998"><g><svg viewBox="0 0 244.43135999999998 100.67051977653631" height="100.67051977653631" width="244.43135999999998"><g><svg viewBox="0 0 244.43135999999998 100.67051977653631" height="100.67051977653631" width="244.43135999999998"><g id="textblocktransform"><svg viewBox="0 0 244.43135999999998 100.67051977653631" height="100.67051977653631" width="244.43135999999998" id="textblock"><g><svg viewBox="0 0 244.43135999999998 100.67051977653631" height="100.67051977653631" width="244.43135999999998"><g transform="matrix(1,0,0,1,0,0)"><svg width="244.43135999999998" viewBox="0.22 -32.4 78.66 32.4" height="100.67051977653631" data-palette-color="url(#b60a9716-de2b-4eb0-b7a9-4b0be33415e6)"><g class="wordmark-text-0" data-fill-palette-color="primary" id="text-0"></g></svg></g></svg></g></svg></g></svg></g></svg></g></svg></g><g><path d="M0 123.6c0-68.262 55.338-123.6 123.6-123.6 45.577 0 85.392 24.668 106.822 61.382l-5.292 0c-20.941-34.1-58.58-56.843-101.53-56.843-65.755 0-119.061 53.305-119.061 119.061 0 65.755 53.305 119.061 119.061 119.061 42.95 0 80.589-22.743 101.53-56.843l5.292 0c-21.43 36.713-61.245 61.382-106.822 61.382-68.262 0-123.6-55.338-123.6-123.6z" fill="url(#12b0af54-ebf0-42bc-b6b6-6afe47d33811)" stroke="transparent" data-fill-palette-color="tertiary"></path></g></svg></g><defs></defs><mask id="afec3fcc-83f1-43d7-87ec-d3f390163d59"><g id="SvgjsG1918"><svg viewBox="0 0 395.52 247.2" height="247.2" width="395.52"><g><svg></svg></g><g><svg viewBox="0 0 395.52 247.2" height="247.2" width="395.52"><g transform="matrix(1,0,0,1,75.54432,73.26474011173184)"><svg viewBox="0 0 244.43135999999998 100.67051977653631" height="100.67051977653631" width="244.43135999999998"><g><svg viewBox="0 0 244.43135999999998 100.67051977653631" height="100.67051977653631" width="244.43135999999998"><g><svg viewBox="0 0 244.43135999999998 100.67051977653631" height="100.67051977653631" width="244.43135999999998"><g id="SvgjsG1917"><svg viewBox="0 0 244.43135999999998 100.67051977653631" height="100.67051977653631" width="244.43135999999998" id="SvgjsSvg1916"><g><svg viewBox="0 0 244.43135999999998 100.67051977653631" height="100.67051977653631" width="244.43135999999998"><g transform="matrix(1,0,0,1,0,0)"><svg width="244.43135999999998" viewBox="0.22 -32.4 78.66 32.4" height="100.67051977653631" data-palette-color="url(#b60a9716-de2b-4eb0-b7a9-4b0be33415e6)"><g class="wordmark-text-0" data-fill-palette-color="primary" id="SvgjsG1915"><path d="M25.49 0L24.12-3.54 13.53-3.54 15.77-9.96 21.63-9.96 12.96-32.4 23.49-32.4 36.4 0 25.49 0ZM16.58-18.07L10.64 0 0.22 0 11.79-30.93 16.58-18.07ZM58.71 0L39.5-32.4 50.97-32.4 59.67-17.99 66.5-29.71 66.5-13.4 58.71 0ZM78.88 0L68.09 0 68.09-32.4 78.88-32.4 78.88 0ZM49.56 0L39.48 0 39.48-29.39 49.56-12.48 49.56 0Z" fill="white"></path></g></svg></g></svg></g></svg></g></svg></g></svg></g></svg></g><g><path d="M0 123.6c0-68.262 55.338-123.6 123.6-123.6 45.577 0 85.392 24.668 106.822 61.382l-5.292 0c-20.941-34.1-58.58-56.843-101.53-56.843-65.755 0-119.061 53.305-119.061 119.061 0 65.755 53.305 119.061 119.061 119.061 42.95 0 80.589-22.743 101.53-56.843l5.292 0c-21.43 36.713-61.245 61.382-106.822 61.382-68.262 0-123.6-55.338-123.6-123.6z" fill="black" stroke="transparent"></path></g></svg></g><defs><mask></mask></defs></svg><rect width="395.52" height="247.2" fill="black" stroke="none" visibility="hidden"></rect></g></mask><linearGradient x1="0.054" x2="0.941" y1="0.5" y2="0.5" id="b60a9716-de2b-4eb0-b7a9-4b0be33415e6"><stop stop-color="#26282a" offset="0"></stop><stop stop-color="#9e9fa0" offset="0.498"></stop><stop stop-color="#26282a" offset="1"></stop></linearGradient><rect width="395.52" height="247.2" fill="url(#b60a9716-de2b-4eb0-b7a9-4b0be33415e6)" mask="url(#afec3fcc-83f1-43d7-87ec-d3f390163d59)" data-fill-palette-color="primary"></rect><mask id="d261774b-ef51-441e-aff5-64b1bc4313d2"><g id="SvgjsG1944"><svg viewBox="0 0 395.52 247.2" height="247.2" width="395.52"><g><svg></svg></g><g><svg viewBox="0 0 395.52 247.2" height="247.2" width="395.52"><g transform="matrix(1,0,0,1,75.54432,73.26474011173184)"><svg viewBox="0 0 244.43135999999998 100.67051977653631" height="100.67051977653631" width="244.43135999999998"><g><svg viewBox="0 0 244.43135999999998 100.67051977653631" height="100.67051977653631" width="244.43135999999998"><g><svg viewBox="0 0 244.43135999999998 100.67051977653631" height="100.67051977653631" width="244.43135999999998"><g id="SvgjsG1943"><svg viewBox="0 0 244.43135999999998 100.67051977653631" height="100.67051977653631" width="244.43135999999998" id="SvgjsSvg1942"><g><svg viewBox="0 0 244.43135999999998 100.67051977653631" height="100.67051977653631" width="244.43135999999998"><g transform="matrix(1,0,0,1,0,0)"><svg width="244.43135999999998" viewBox="0.22 -32.4 78.66 32.4" height="100.67051977653631" data-palette-color="url(#b60a9716-de2b-4eb0-b7a9-4b0be33415e6)"><g class="wordmark-text-0" data-fill-palette-color="primary" id="SvgjsG1941"></g></svg></g></svg></g></svg></g></svg></g></svg></g></svg></g><g><path d="M0 123.6c0-68.262 55.338-123.6 123.6-123.6 45.577 0 85.392 24.668 106.822 61.382l-5.292 0c-20.941-34.1-58.58-56.843-101.53-56.843-65.755 0-119.061 53.305-119.061 119.061 0 65.755 53.305 119.061 119.061 119.061 42.95 0 80.589-22.743 101.53-56.843l5.292 0c-21.43 36.713-61.245 61.382-106.822 61.382-68.262 0-123.6-55.338-123.6-123.6z" fill="white" stroke="transparent"></path></g></svg></g><defs><mask></mask></defs><mask><g id="SvgjsG1940"><svg viewBox="0 0 395.52 247.2" height="247.2" width="395.52"><g><svg></svg></g><g><svg viewBox="0 0 395.52 247.2" height="247.2" width="395.52"><g transform="matrix(1,0,0,1,75.54432,73.26474011173184)"><svg viewBox="0 0 244.43135999999998 100.67051977653631" height="100.67051977653631" width="244.43135999999998"><g><svg viewBox="0 0 244.43135999999998 100.67051977653631" height="100.67051977653631" width="244.43135999999998"><g><svg viewBox="0 0 244.43135999999998 100.67051977653631" height="100.67051977653631" width="244.43135999999998"><g id="SvgjsG1939"><svg viewBox="0 0 244.43135999999998 100.67051977653631" height="100.67051977653631" width="244.43135999999998" id="SvgjsSvg1938"><g><svg viewBox="0 0 244.43135999999998 100.67051977653631" height="100.67051977653631" width="244.43135999999998"><g transform="matrix(1,0,0,1,0,0)"><svg width="244.43135999999998" viewBox="0.22 -32.4 78.66 32.4" height="100.67051977653631" data-palette-color="url(#b60a9716-de2b-4eb0-b7a9-4b0be33415e6)"><g class="wordmark-text-0" data-fill-palette-color="primary" id="SvgjsG1937"><path d="M25.49 0L24.12-3.54 13.53-3.54 15.77-9.96 21.63-9.96 12.96-32.4 23.49-32.4 36.4 0 25.49 0ZM16.58-18.07L10.64 0 0.22 0 11.79-30.93 16.58-18.07ZM58.71 0L39.5-32.4 50.97-32.4 59.67-17.99 66.5-29.71 66.5-13.4 58.71 0ZM78.88 0L68.09 0 68.09-32.4 78.88-32.4 78.88 0ZM49.56 0L39.48 0 39.48-29.39 49.56-12.48 49.56 0Z" fill="black"></path></g></svg></g></svg></g></svg></g></svg></g></svg></g></svg></g><g><path d="M0 123.6c0-68.262 55.338-123.6 123.6-123.6 45.577 0 85.392 24.668 106.822 61.382l-5.292 0c-20.941-34.1-58.58-56.843-101.53-56.843-65.755 0-119.061 53.305-119.061 119.061 0 65.755 53.305 119.061 119.061 119.061 42.95 0 80.589-22.743 101.53-56.843l5.292 0c-21.43 36.713-61.245 61.382-106.822 61.382-68.262 0-123.6-55.338-123.6-123.6z" fill="black" stroke="transparent"></path></g></svg></g><defs><mask></mask></defs></svg><rect width="395.52" height="247.2" fill="black" stroke="none" visibility="hidden"></rect></g></mask></svg><rect width="395.52" height="247.2" fill="black" stroke="none" visibility="hidden"></rect></g></mask><linearGradient x1="0.054" x2="0.941" y1="0.5" y2="0.5" id="12b0af54-ebf0-42bc-b6b6-6afe47d33811"><stop stop-color="#26282a" offset="0"></stop><stop stop-color="#9e9fa0" offset="0.498"></stop><stop stop-color="#26282a" offset="1"></stop></linearGradient></svg><rect width="395.52" height="247.2" fill="none" stroke="none" visibility="hidden"></rect></g></svg></g></svg>